<?xml version="1.0" encoding="UTF-8"?>
<svg enable-background="new 0 0 255.0918 237.1826" version="1.1" viewBox="0 0 255.09 237.18" xml:space="preserve" xmlns="http://www.w3.org/2000/svg">
<g fill="#666">
	<path d="m175.22 227.17c0 5.5234 4.4766 10 10 10 5.5215 0 10-4.4766 10-10v-49.46c-7.6598-0.0939-14.336-0.8215-20-1.8389v51.298z"/>
	<path d="m198.55 227.17c0 5.5234 4.4756 10 10 10 5.5195 0 10-4.4766 10-10v-51.298c-5.6639 1.0174-12.34 1.7449-20 1.8389v49.46z"/>
	<path d="m213.82 56.162c2.9756 0.5295 11.501 2.9382 20.489 13.564 0.5387-0.8311 0.9362-1.7726 1.139-2.8039 0.8525-4.335-1.9717-8.5405-6.3066-9.3926-7.7935-1.532-15.761-2.7244-23.543-3.6531-0.5123 0.1956-1.0314 0.377-1.5595 0.5385 4.555 0.5255 8.2997 1.3801 9.7814 1.7474z"/>
	<path d="m150.19 167.21 2.0337-9.9953v-13.807c-1.7502 1.9384-4.2706 3.15-7.0337 3.1503-0.417 0-0.8398-0.0278-1.2559-0.083-5.1904-0.6846-8.8584-5.4663-8.1748-10.66 3.4557-26.206 9.6971-43.81 16.464-55.636v-13.482c2.7075 0.0186 6.0303 0.0663 9.8298 0.1686 7.9951-8.2157 15.212-10.228 17.9-10.706 1.4816-0.3673 5.2261-1.2219 9.7813-1.7473-1.9963-0.6105-3.8849-1.4688-5.6299-2.5403-19.764-1.3631-35.432-1.2202-39.244-1.1582-0.122-0.0057-0.2421-0.0184-0.3655-0.0184h-38.635c-0.2394 0-0.4755 0.0145-0.7094 0.0358l-24.687 0.0944c1.7227 0.986 3.515 2.2661 5.3109 3.953 3.2837 3.0854 6.0962 7.0931 8.4443 11.995l3.9123-0.015v10.469c4.37 15.093 5.8143 35.757 4.2889 61.838-0.1938 3.3033-1.8388 6.196-4.2889 8.0797v77.672c0 6.8301 5.537 12.363 12.363 12.363 6.8281 0 12.365-5.5332 12.365-12.363v-90.272h4.6348v90.272c0 6.8301 5.5371 12.363 12.363 12.363 6.8281 0 12.365-5.5332 12.365-12.363v-56.392c-0.1035-0.059-0.1816-0.1047-0.2134-0.1237l-1.8203-1.0913z"/>
	<path d="m125.17 45c12.428 0 22.5-10.073 22.5-22.5 0-12.427-10.072-22.5-22.5-22.5-12.426 0-22.5 10.073-22.5 22.5 0 12.427 10.074 22.5 22.5 22.5zm14.035-13.868c-2.9087 4.7114-8.1038 7.8682-14.035 7.8682s-11.126-3.1567-14.035-7.8682h28.07z"/>
	<path d="m83.716 56.968c-5.5981-5.2595-11.068-6.1738-13.89-6.2444-0.167-0.0107-0.333-0.0254-0.5024-0.0254h-38.635c-0.1626 0-0.3208 0.0144-0.481 0.0242-2.8145 0.0652-8.2974 0.9692-13.912 6.2456-12.892 12.113-18.177 39.677-15.705 81.925 0.249 4.252 3.7744 7.5332 7.9785 7.5327 0.1572 0 0.3164-0.0044 0.4746-0.0137 4.4111-0.2578 7.7773-4.043 7.5195-8.4536-2.0557-35.14 1.9263-53.87 6.397-63.167v150.03c0 6.8301 5.5371 12.363 12.363 12.363 6.8281 0 12.365-5.5332 12.365-12.363v-90.272h4.6348v90.272c0 6.8301 5.5371 12.363 12.363 12.363 6.8281 0 12.365-5.5332 12.365-12.363v-150.03c4.4702 9.2981 8.4517 28.029 6.396 63.165-0.2578 4.4106 3.1084 8.1958 7.5195 8.4536 0.1592 0.0093 0.3164 0.0137 0.4746 0.0137 4.2041 0 7.7295-3.2813 7.9785-7.5327 2.4717-42.248-2.8125-69.811-15.705-81.925z"/>
	<path d="m27.506 22.5c0 12.427 10.074 22.5 22.5 22.5 12.428 0 22.5-10.073 22.5-22.5 0-12.427-10.072-22.5-22.5-22.5-12.426 0-22.5 10.073-22.5 22.5zm36.535 8.632c-2.9087 4.7114-8.1038 7.8682-14.035 7.8682s-11.126-3.1567-14.035-7.8682h28.07z"/>
	<path d="m213.2 59.1c-1.7139-0.4287-8.958-2.1235-16.312-2.1235-7.3555 0-14.6 1.6948-16.314 2.1235-5.1572 0.8765-32.826 8.7563-41.84 77.11-0.4688 3.5591 2.0352 6.8247 5.5947 7.2939 3.5576 0.4717 6.8242-2.0356 7.2939-5.5947 4.1354-31.358 12.206-47.905 19.106-56.59l-17.175 84.412s15.013 9 43.333 9 43.334-9 43.334-9l-17.168-84.375c6.8843 8.7064 14.973 25.268 19.098 56.553 0.4316 3.271 3.2246 5.6514 6.4365 5.6514 0.2832-5e-4 0.5693-0.0186 0.8574-0.0566 3.5596-0.4692 6.0635-3.7349 5.5947-7.2939-9.0137-68.354-36.683-76.234-41.84-77.11z"/>
	<path d="m196.88 52.483c11.874 0 21.5-9.6259 21.5-21.5s-9.6259-21.5-21.5-21.5-21.5 9.6259-21.5 21.5 9.6258 21.5 21.5 21.5zm14.035-13.684c-2.9087 4.7114-8.1038 7.8682-14.035 7.8682s-11.126-3.1567-14.035-7.8682h28.07z"/>
</g>
</svg>

