<svg width="83" height="83" viewBox="0 0 83 83" fill="none" xmlns="http://www.w3.org/2000/svg">
<g clip-path="url(#clip0_2_0)">
<path d="M74.4382 54.0358C70.5355 56.6722 65.9182 59.5794 60.9912 58.6214C58.4787 58.1315 56.5195 56.531 54.9362 54.54C55.462 52.1255 55.0903 49.4718 53.9652 47.0256C53.3861 45.7636 52.7522 44.539 52.0938 43.3275C52.7162 43.2684 53.3356 43.1892 53.9623 43.0797C54.2332 43.0321 54.4665 42.9529 54.6826 42.8578C57.6201 44.4051 61.2304 44.5102 64.3234 42.6993C68.9148 40.0068 70.7329 33.6794 67.8703 29.0679C65.5322 25.2949 63.1839 21.5218 60.8428 17.7473C57.986 13.1401 51.9872 11.4056 47.2129 14.2019C45.6959 15.0908 44.4886 16.3816 43.6473 17.8712C41.2486 18.4504 38.9695 19.417 37.0578 21.0594C36.3749 21.6472 35.7972 22.294 35.2786 22.9754C32.9303 22.281 30.3602 22.4842 27.8419 23.9608C27.6114 24.0963 27.3867 24.249 27.1677 24.4103C26.7442 24.3253 26.3048 24.2979 25.8553 24.3512C18.3798 25.2416 11.0872 26.6736 3.99635 29.248C-3.04554 31.8023 -0.00865048 43.1243 7.10815 40.5412C12.4472 38.6036 17.9591 37.2004 23.5733 36.3706C23.775 36.7912 24.0055 37.2047 24.2951 37.5922C28.2698 42.8967 32.1884 48.2271 35.28 54.0776C28.0869 58.7092 21.1184 63.6708 14.3099 68.8788C8.39752 73.401 14.2192 83.582 20.2209 78.9936C28.1445 72.9328 36.2798 67.2033 44.7379 61.9478C45.1715 61.9709 45.6022 61.9594 46.0287 61.9334C49.1073 65.6229 52.9567 68.5013 57.8751 69.9189C65.6978 72.1721 73.9945 68.4538 80.3492 64.1578C86.5656 59.9453 80.7137 49.7916 74.4382 54.0358ZM48.6348 37.549C46.3874 34.1131 43.9469 30.8025 41.4733 27.5063C41.1334 27.051 40.7645 26.626 40.3828 26.2212C40.9763 25.5816 41.675 25.05 42.4573 24.6178C42.6561 25.7314 43.0451 26.8205 43.6703 27.8275C45.6988 31.0949 47.7243 34.3623 49.7571 37.6297C49.3767 37.6225 49.0065 37.5908 48.6348 37.549Z" fill="#ffffff"/>
<path d="M23.3183 21.9756C28.6014 21.9756 32.8842 17.6928 32.8842 12.4097C32.8842 7.12664 28.6014 2.84384 23.3183 2.84384C18.0352 2.84384 13.7524 7.12664 13.7524 12.4097C13.7524 17.6928 18.0352 21.9756 23.3183 21.9756Z" fill="#ffffff"/>
</g>
<defs>
<clipPath id="clip0_2_0">
<rect width="83" height="83" fill="white"/>
</clipPath>
</defs>
</svg>
