<?xml version="1.0" encoding="utf-8"?>
<svg version="1.1" id="Layer_1" xmlns="http://www.w3.org/2000/svg" xmlns:xlink="http://www.w3.org/1999/xlink" x="0px" y="0px"
	 viewBox="0 0 256.8751 238.9747" enable-background="new 0 0 256.8751 238.9747" xml:space="preserve">
<g>
	<path fill="#666" d="M230.9207,17.6032c1.9203-1.8629,3.1181-4.4664,3.1181-7.3532c0-5.6609-4.5891-10.25-10.25-10.25
		c-4.0925,0-7.6144,2.4044-9.2576,5.8723C221.5623,7.175,227.5161,11.5754,230.9207,17.6032z"/>
	<path fill="#666" d="M22.6082,81.5572c2.0671,6.8003,3.6876,14.15,3.1773,19.4022c-1.0078,10.3653-3.6146,14.5049-4.8724,24.2159
		c-0.3477,1.2714-0.5449,3.1699-0.5449,5.9062c0,17.7547,4.3766,19.6086,4.6523,36.06v61.0144c0,5.5234,4.4766,10,10,10
		c5.5215,0,10-4.4766,10-10v-85.6612h3.334v85.6612c0,5.5234,4.4766,10,10,10c5.5195,0,10-4.4766,10-10v-61.0144
		c0.2757-16.4514,4.6523-18.3053,4.6523-36.06c0-2.7344-0.1972-4.6309-0.5449-5.9043c-1.2558-9.7129-3.8651-13.8525-4.8704-24.2178
		c-0.5302-5.4514,1.2346-13.1627,3.4125-20.1735c3.5311,11.3372,8.6709,31.9451,9.3735,57.554
		c0.075,2.7355,1.8326,5.0232,4.2521,5.9157l27.3077,22.4489v36.7709c0,0.0006,0.0002,0.0012,0.0002,0.0012v27.998
		c0,4.1421,3.3579,7.5,7.5,7.5s7.5-3.3579,7.5-7.5v-23.9993h3v23.9993c0,4.1421,3.3579,7.5,7.5,7.5s7.5-3.3579,7.5-7.5v-36.7148
		c0-0.0012-0.0002-0.0024-0.0002-0.0036v-28.0518l27.3074-22.4486c2.4197-0.8924,4.1779-3.1802,4.2529-5.9159
		c0.7001-25.5123,5.8467-46.1637,9.3797-57.5353c2.1755,7.0057,3.9373,14.7082,3.4081,20.1548
		c-1.0078,10.3653-3.6146,14.5049-4.8724,24.2159c-0.3477,1.2714-0.5449,3.1699-0.5449,5.9062
		c0,17.7547,4.3766,19.6086,4.6523,36.06v61.0144c0,5.5234,4.4766,10,10,10c5.5215,0,10-4.4766,10-10v-85.6612h3.334v85.6612
		c0,5.5234,4.4766,10,10,10c5.5195,0,10-4.4766,10-10v-61.0144c0.2757-16.4514,4.6523-18.3053,4.6523-36.06
		c0-2.7344-0.1972-4.6309-0.5449-5.9043c-1.2558-9.7129-3.8651-13.8525-4.8704-24.2178
		c-0.5302-5.4514,1.2346-13.1627,3.4125-20.1735c3.5311,11.3372,8.6709,31.9451,9.3735,57.554
		c0.0967,3.5278,2.9868,6.3218,6.4941,6.3218c0.0605,0,0.1211-0.001,0.1816-0.0024c3.5884-0.0986,6.418-3.0874,6.3193-6.6758
		c-1.1455-41.752-13.2515-70.6567-13.7661-71.8667c-0.6846-1.6101-1.944-2.7961-3.4358-3.431
		c-3.4126-2.0125-13.512-7.0245-29.4822-7.0245c-15.9774,0-26.0801,5.0166-29.4887,7.0272
		c-1.4892,0.6359-2.7468,1.8208-3.4312,3.4282c-0.5141,1.2086-12.5927,30.0519-13.7612,71.7289l-18.8367,15.485
		c-3.4355,5.3449-9.4211,8.9019-16.2334,8.9019c-6.812,0-12.7972-3.5566-16.2327-8.9011l-18.837-15.4854
		c-1.1685-41.6772-13.2471-70.5207-13.7612-71.7293c-0.6845-1.6098-1.9437-2.7955-3.4352-3.4305
		c-3.412-2.0122-13.5116-7.0249-29.4828-7.0249c-3.7115,0-7.1049,0.2716-10.1727,0.7127c-0.2004,6.835-0.6525,14.3358-5.2683,19.36
		C28.2739,78.9711,25.2841,80.6907,22.6082,81.5572z"/>
	<path fill="#666" d="M6.3218,144.6593c0.061,0.0015,0.1211,0.0024,0.1816,0.0024c3.5068,0,6.3975-2.7939,6.4941-6.3218
		c0.6819-24.8483,5.5807-45.0792,9.0997-56.6228c-3.4541,0.9948-6.3273,0.581-7.8499,0.1918
		c-1.9888-0.5083-4.1591-1.6136-4.8472-3.2327C5.638,91.1456,0.713,112.0897,0.0025,137.9835
		C-0.0961,141.5719,2.7335,144.5607,6.3218,144.6593z"/>
	<path fill="#666" d="M16.5586,73.3364c1.418-1.4474,3.0007-4.6987,3.1063-11.9687c-1.0359,0.5072-1.8545,0.9608-2.4651,1.3209
		c-1.4892,0.6359-2.7468,1.8208-3.4312,3.4282c-0.1649,0.3878-1.5226,3.6324-3.3262,9.2201
		c0.5218-0.3278,1.2128-0.5392,2.1216-0.5178C14.2593,74.8588,15.5287,74.388,16.5586,73.3364z"/>
	<path fill="#666" d="M193.5358,17.1571c3.3442,0.2975,5.9937,2.6805,6.8015,5.7504l4.1649,0.3705c1.3371-2.8791,4.3657-4.7568,7.7099-4.4593
		c3.3442,0.2975,5.9937,2.6805,6.8015,5.7504l12.3488,1.0987c-1.716-10.1564-10.5304-17.9-21.175-17.9
		c-7.3761,0-13.8801,3.7179-17.7527,9.3782C192.7972,17.1271,193.1635,17.124,193.5358,17.1571z"/>
	<path fill="#666" d="M219.2447,27.2251c-0.3793,4.2634-4.1429,7.412-8.4063,7.0327c-4.2635-0.3793-7.412-4.1428-7.0327-8.4063
		c0.0075-0.084,0.0247-0.1647,0.0347-0.2479l-3.2623-0.2902c-0.0048,0.0837-0.0021,0.1661-0.0096,0.2501
		c-0.3793,4.2635-4.1429,7.412-8.4063,7.0327c-1.2356-0.1099-2.3727-0.5111-3.3623-1.1193
		c1.106,10.8362,10.259,19.2911,21.3873,19.2911c11.8741,0,21.5-9.6259,21.5-21.5c0-0.4025-0.0383-0.7951-0.0602-1.1921
		l-12.3727-1.1008C219.2495,27.0586,219.2522,27.141,219.2447,27.2251z"/>
	<circle fill="#666" cx="128.4376" cy="142.9338" r="15.299"/>
	<path fill="#666" d="M193.3696,19.0247c-3.2314-0.2875-6.085,2.0998-6.3726,5.3312c-0.2876,3.2324,2.0998,6.085,5.3312,6.3726
		c3.2313,0.2875,6.085-2.0989,6.3726-5.3312C198.9883,22.1658,196.601,19.3122,193.3696,19.0247z"/>
	<ellipse fill="#666" transform="matrix(0.0545 -0.9985 0.9985 0.0545 173.4994 236.3029)" cx="211.5252" cy="26.5383" rx="5.875" ry="5.875"/>
	<path fill="#666" d="M29.5543,74.1778c5.4971-5.9832,4.3084-16.6467,4.9326-24.4851c-3.619-2.1699-6.6161-5.2729-8.6567-8.9752
		c-2.624,3.6406-4.2784,9.0005-3.9246,16.9717c0.7438,16.7548-4.8547,19.5364-9.3961,19.4294
		C7.9682,77.0116,19.2263,85.4191,29.5543,74.1778z"/>
	<circle fill="#666" cx="46.6872" cy="29.2679" r="21.5"/>
</g>
</svg>
