<?xml version="1.0" encoding="UTF-8"?>
<svg enable-background="new 0 0 210.0369 272.0039" version="1.1" viewBox="0 0 210.04 272" xml:space="preserve" xmlns="http://www.w3.org/2000/svg">
<g fill="#666">
	<path d="m45.315 84.23c12.099 2.8174 24.192-4.707 27.009-16.808 2.8179-12.1-4.708-24.192-16.806-27.011-12.1-2.8164-24.194 4.708-27.012 16.808-2.8174 12.101 4.708 24.193 16.809 27.011z"/>
	<path d="m8.0357 190.89c0.0346 0 0.0688-5e-4 0.1035-5e-4 4.4184-0.0581 7.9531-3.6865 7.8955-8.1035-0.0239-1.8022-0.0342-3.5605-0.0342-5.2808-0.0376-30.708 3.5952-48.549 7.3696-58.34v140.47c0 6.8291 5.5362 12.363 12.363 12.363 6.8281 0 12.364-5.5342 12.364-12.363v-84.272h4.6357v84.272c0 6.8291 5.5361 12.363 12.363 12.363 6.8281 0 12.364-5.5342 12.364-12.363v-138.83c4.4033 11.045 9.2397 30.553 11.765 63.64 0.3198 4.1982 3.8291 7.3911 7.9717 7.3911 0.2041 0 0.4092-0.0078 0.6157-0.0235 2.6924-0.206 4.9653-1.7265 6.2534-3.8798 0.6714-0.8233 1.1597-1.815 1.3633-2.9346 6.9067-38.047 14.798-58.49 20.831-69.015l-16.709 85.998h21.667v59.529c0 5.5234 4.4765 10 10 10 5.521 0 10-4.4766 10-10v-59.529h3.333v59.529c0 5.5234 4.4765 10 10 10 5.521 0 10-4.4766 10-10v-59.529h21.667l-16.838-86.665c1.626 3.0591 3.3906 6.9996 5.1953 12.059 4.2515 11.869 8.7397 29.795 12.523 56.427 0.462 3.2451 3.2456 5.5874 6.4317 5.5874 0.3037 0 0.6113-0.0215 0.9209-0.0654 3.5527-0.5059 6.0239-3.7979 5.52-7.3506-5.9033-41.333-13.418-63.002-20.374-75.042-3.4922-6.0054-6.9107-9.6465-10.104-11.843-1.9825-1.3765-3.8882-2.1284-5.4668-2.4932-2.4707-0.9829-9.4859-3.2817-21.142-3.2817-14.814 0-22.166 3.7236-22.166 3.7236l-0.0142 0.0728c-0.9771 0.3789-2.0806 0.9228-3.2671 1.7099-4.5781 3.0293-10.294 9.2007-16.384 22.367-3.3755 7.3184-6.8794 16.836-10.325 29.308-3.2768-18.507-7.4321-30.53-11.557-38.604-3.2056-6.2383-6.4536-10.13-9.3696-12.564-2.9029-2.4371-5.4859-3.3213-6.7774-3.5513-0.6323-0.1201-1.2593-0.1533-1.875-0.124-0.46-0.0855-0.9326-0.1358-1.417-0.1358h-38.636c-0.628 0-1.2354 0.083-1.8199 0.2246-1.6811 0.2188-4.0595 0.8418-6.6591 2.396-5.3965 3.2012-11.107 9.8653-15.326 22.471-4.2476 12.666-7.2813 31.572-7.293 60.895 0 1.7901 0.0117 3.6182 0.0357 5.4883 0.0576 4.3823 3.6303 7.8965 8 7.8965z"/>
	<path d="m147.79 84.23c12.099 2.8174 24.192-4.707 27.01-16.808 2.8174-12.1-4.708-24.192-16.807-27.011-12.1-2.8164-24.193 4.708-27.012 16.808-2.8174 12.101 4.708 24.193 16.809 27.011z"/>
	<path d="m101.3 46.93c46.93-30.797 21.999-46.93 12.466-46.93-9.5327 0-12.466 7.333-12.466 7.333s-2.9336-7.333-12.465-7.333c-9.5327 0-34.464 16.133 12.465 46.93z"/>
</g>
</svg>
